<svg xmlns="http://www.w3.org/2000/svg" xmlns:xlink="http://www.w3.org/1999/xlink" viewBox="0 0 600 600"><defs><clipPath id="c3269b50-f102-4bc0-afb2-3b1093d8022d"><rect x="407.26" y="98.74" width="192.74" height="402.53" fill="none"/></clipPath><linearGradient id="a91cb816-f524-4fb8-bb09-1cd500aed2bf" x1="500.3" y1="466.38" x2="305.71" y2="129.35" gradientTransform="translate(328.66 -197.73) rotate(45)" gradientUnits="userSpaceOnUse"><stop offset="0.1" stop-color="#262626"/><stop offset="0.35" stop-color="#434343"/><stop offset="0.5" stop-color="#505050"/><stop offset="0.64" stop-color="#3d3b3c"/><stop offset="0.79" stop-color="#252223"/><stop offset="1"/></linearGradient></defs><title>vinyl-cover</title><g id="acbe1273-ed75-4aee-8bc3-94af7ce10a4d" data-name="sizable"><rect width="600" height="600" fill="none"/></g><g id="000bd1fb-d73a-43dd-8eb3-3974fbb8d8da" data-name="disc"><g clip-path="url(#c3269b50-f102-4bc0-afb2-3b1093d8022d)"><circle cx="403.01" cy="297.87" r="194.55" transform="translate(-92.59 372.21) rotate(-45)" fill="url(#a91cb816-f524-4fb8-bb09-1cd500aed2bf)"/><path d="M403,494.86c-108.63,0-197-88.37-197-197s88.37-197,197-197,197,88.37,197,197S511.63,494.86,403,494.86Zm0-389.11c-105.94,0-192.12,86.18-192.12,192.12S297.07,490,403,490,595.12,403.8,595.12,297.87,508.94,105.75,403,105.75Z" fill="#231f20"/><circle cx="403.01" cy="297.87" r="87.35" transform="translate(-88.78 201.52) rotate(-25.38)" opacity="0.5"/><circle cx="403.01" cy="297.87" r="70.75" transform="translate(-86.93 192.53) rotate(-24.33)" fill="#ffcc05"/><path d="M403,439c-77.81,0-141.11-63.3-141.11-141.1S325.2,156.76,403,156.76s141.1,63.3,141.1,141.11S480.81,439,403,439Zm0-280.14c-76.67,0-139,62.37-139,139s62.37,139,139,139,139-62.37,139-139S479.67,158.83,403,158.83Z" fill="#231f20" opacity="0.6"/><path d="M403,408.62A110.76,110.76,0,1,1,513.76,297.87,110.88,110.88,0,0,1,403,408.62Zm0-219.49A108.74,108.74,0,1,0,511.74,297.87,108.86,108.86,0,0,0,403,189.13Z" fill="#231f20" opacity="0.6"/><path d="M431,297.87a28,28,0,1,1-28-28A28,28,0,0,1,431,297.87Z" fill="#d9dadc"/><path d="M403,468c-93.79,0-170.09-76.3-170.09-170.08S309.22,127.78,403,127.78s170.08,76.3,170.08,170.09S496.79,468,403,468Zm0-337.68c-92.41,0-167.6,75.19-167.6,167.6S310.6,465.46,403,465.46,570.6,390.28,570.6,297.87,495.42,130.27,403,130.27Z" fill="#231f20" opacity="0.6"/></g></g><g id="f85eea52-2365-41f3-8492-4a293950a914" data-name="cover"><rect y="98.74" width="407.26" height="402.53" fill="#ffcc05"/></g></svg>
